<mxfile host="app.diagrams.net" modified="2022-10-28T15:34:20.295Z" agent="5.0 (Macintosh; Intel Mac OS X 10_15_7) AppleWebKit/537.36 (KHTML, like Gecko) Chrome/106.0.0.0 Safari/537.36" etag="6VWjNAE8rK5uVwBS76i8" version="20.4.0" type="github">
  <diagram id="mBA07j4c76eXMt5kLkDF" name="Page-1">
    <mxGraphModel dx="1130" dy="748" grid="1" gridSize="10" guides="1" tooltips="1" connect="1" arrows="1" fold="1" page="1" pageScale="1" pageWidth="827" pageHeight="1169" math="0" shadow="0">
      <root>
        <mxCell id="0" />
        <mxCell id="1" parent="0" />
        <mxCell id="LkTbfZvUrr51lgm0EBLz-53" value="" style="strokeWidth=1;shadow=0;dashed=0;align=center;html=1;shape=mxgraph.mockup.containers.browserWindow;rSize=0;strokeColor=#666666;strokeColor2=#008cff;strokeColor3=#c4c4c4;mainText=,;recursiveResize=0;fillStyle=auto;fontSize=12;fillColor=#f5f5f5;fontColor=#333333;" vertex="1" parent="1">
          <mxGeometry x="40" y="510" width="930" height="280" as="geometry" />
        </mxCell>
        <mxCell id="LkTbfZvUrr51lgm0EBLz-54" value="Page 1" style="strokeWidth=1;shadow=0;dashed=0;align=center;html=1;shape=mxgraph.mockup.containers.anchor;fontSize=17;fontColor=#666666;align=left;fillStyle=auto;" vertex="1" parent="LkTbfZvUrr51lgm0EBLz-53">
          <mxGeometry x="60" y="12" width="110" height="26" as="geometry" />
        </mxCell>
        <mxCell id="LkTbfZvUrr51lgm0EBLz-55" value="" style="strokeWidth=1;shadow=0;dashed=0;align=center;html=1;shape=mxgraph.mockup.containers.anchor;rSize=0;fontSize=17;fontColor=#666666;align=left;fillStyle=auto;" vertex="1" parent="LkTbfZvUrr51lgm0EBLz-53">
          <mxGeometry x="130" y="60" width="250" height="26" as="geometry" />
        </mxCell>
        <mxCell id="LkTbfZvUrr51lgm0EBLz-21" value="" style="rounded=1;whiteSpace=wrap;html=1;fillStyle=hatch;fillColor=#fff2cc;strokeColor=#d6b656;" vertex="1" parent="1">
          <mxGeometry x="40" y="970" width="380" height="150" as="geometry" />
        </mxCell>
        <mxCell id="LkTbfZvUrr51lgm0EBLz-13" value="" style="sketch=0;pointerEvents=1;shadow=0;dashed=0;html=1;strokeColor=none;fillColor=#434445;aspect=fixed;labelPosition=center;verticalLabelPosition=bottom;verticalAlign=top;align=center;outlineConnect=0;shape=mxgraph.vvd.web_browser;fillStyle=auto;" vertex="1" parent="1">
          <mxGeometry x="205" y="640" width="120" height="85.2" as="geometry" />
        </mxCell>
        <mxCell id="LkTbfZvUrr51lgm0EBLz-14" value="" style="sketch=0;pointerEvents=1;shadow=0;dashed=0;html=1;strokeColor=none;fillColor=#434445;aspect=fixed;labelPosition=center;verticalLabelPosition=bottom;verticalAlign=top;align=center;outlineConnect=0;shape=mxgraph.vvd.web_browser;fillStyle=auto;" vertex="1" parent="1">
          <mxGeometry x="475" y="640" width="120" height="85.2" as="geometry" />
        </mxCell>
        <mxCell id="LkTbfZvUrr51lgm0EBLz-15" value="" style="sketch=0;pointerEvents=1;shadow=0;dashed=0;html=1;strokeColor=none;fillColor=#434445;aspect=fixed;labelPosition=center;verticalLabelPosition=bottom;verticalAlign=top;align=center;outlineConnect=0;shape=mxgraph.vvd.web_browser;fillStyle=auto;" vertex="1" parent="1">
          <mxGeometry x="790" y="643.55" width="110" height="78.1" as="geometry" />
        </mxCell>
        <mxCell id="LkTbfZvUrr51lgm0EBLz-16" value="Page du panier" style="text;html=1;strokeColor=none;fillColor=none;align=center;verticalAlign=middle;whiteSpace=wrap;rounded=0;fillStyle=auto;" vertex="1" parent="1">
          <mxGeometry x="220" y="610" width="90" height="30" as="geometry" />
        </mxCell>
        <mxCell id="LkTbfZvUrr51lgm0EBLz-17" value="Page de paiement" style="text;html=1;strokeColor=none;fillColor=none;align=center;verticalAlign=middle;whiteSpace=wrap;rounded=0;fillStyle=auto;" vertex="1" parent="1">
          <mxGeometry x="470" y="610" width="130" height="30" as="geometry" />
        </mxCell>
        <mxCell id="LkTbfZvUrr51lgm0EBLz-18" value="Page confirmation paiement" style="text;html=1;strokeColor=none;fillColor=none;align=center;verticalAlign=middle;whiteSpace=wrap;rounded=0;fillStyle=auto;" vertex="1" parent="1">
          <mxGeometry x="760" y="610" width="130" height="30" as="geometry" />
        </mxCell>
        <mxCell id="LkTbfZvUrr51lgm0EBLz-20" value="Service de&amp;nbsp;&lt;br&gt;paiement" style="rounded=1;whiteSpace=wrap;html=1;fillStyle=auto;fillColor=#fff2cc;strokeColor=#d6b656;" vertex="1" parent="1">
          <mxGeometry x="284" y="1020" width="120" height="60" as="geometry" />
        </mxCell>
        <mxCell id="LkTbfZvUrr51lgm0EBLz-23" value="" style="endArrow=classic;html=1;rounded=0;exitX=0;exitY=0.5;exitDx=0;exitDy=0;" edge="1" parent="1" source="LkTbfZvUrr51lgm0EBLz-20" target="LkTbfZvUrr51lgm0EBLz-56">
          <mxGeometry width="50" height="50" relative="1" as="geometry">
            <mxPoint x="240" y="1050" as="sourcePoint" />
            <mxPoint x="140" y="1050" as="targetPoint" />
          </mxGeometry>
        </mxCell>
        <mxCell id="LkTbfZvUrr51lgm0EBLz-24" value="Store token" style="text;html=1;strokeColor=none;fillColor=none;align=center;verticalAlign=middle;whiteSpace=wrap;rounded=0;fillStyle=auto;fontSize=15;" vertex="1" parent="1">
          <mxGeometry x="170" y="1020" width="90" height="30" as="geometry" />
        </mxCell>
        <mxCell id="LkTbfZvUrr51lgm0EBLz-25" value="Payment service provider" style="rounded=1;whiteSpace=wrap;html=1;fillStyle=auto;fillColor=#fff2cc;strokeColor=#d6b656;" vertex="1" parent="1">
          <mxGeometry x="765" y="1015" width="120" height="60" as="geometry" />
        </mxCell>
        <mxCell id="LkTbfZvUrr51lgm0EBLz-27" value="" style="endArrow=classic;html=1;rounded=0;entryX=0.587;entryY=-0.007;entryDx=0;entryDy=0;entryPerimeter=0;startArrow=none;" edge="1" parent="1" source="LkTbfZvUrr51lgm0EBLz-28" target="LkTbfZvUrr51lgm0EBLz-21">
          <mxGeometry width="50" height="50" relative="1" as="geometry">
            <mxPoint x="230" y="870" as="sourcePoint" />
            <mxPoint x="280" y="820" as="targetPoint" />
          </mxGeometry>
        </mxCell>
        <mxCell id="LkTbfZvUrr51lgm0EBLz-28" value="Checkout" style="text;html=1;strokeColor=none;fillColor=none;align=center;verticalAlign=middle;whiteSpace=wrap;rounded=0;fillStyle=auto;fontSize=17;" vertex="1" parent="1">
          <mxGeometry x="235" y="860" width="60" height="30" as="geometry" />
        </mxCell>
        <mxCell id="LkTbfZvUrr51lgm0EBLz-31" value="" style="endArrow=none;html=1;rounded=0;entryX=0.587;entryY=-0.007;entryDx=0;entryDy=0;entryPerimeter=0;" edge="1" parent="1" source="LkTbfZvUrr51lgm0EBLz-13" target="LkTbfZvUrr51lgm0EBLz-28">
          <mxGeometry width="50" height="50" relative="1" as="geometry">
            <mxPoint x="264.7113881613409" y="725.2" as="sourcePoint" />
            <mxPoint x="263.05999999999995" y="968.95" as="targetPoint" />
          </mxGeometry>
        </mxCell>
        <mxCell id="LkTbfZvUrr51lgm0EBLz-33" value="" style="endArrow=classic;html=1;rounded=0;fontSize=15;entryX=0;entryY=0.25;entryDx=0;entryDy=0;exitX=1;exitY=0.25;exitDx=0;exitDy=0;" edge="1" parent="1" source="LkTbfZvUrr51lgm0EBLz-21" target="LkTbfZvUrr51lgm0EBLz-25">
          <mxGeometry width="50" height="50" relative="1" as="geometry">
            <mxPoint x="440" y="1010" as="sourcePoint" />
            <mxPoint x="490" y="960" as="targetPoint" />
          </mxGeometry>
        </mxCell>
        <mxCell id="LkTbfZvUrr51lgm0EBLz-34" value="Initier un paiement" style="text;html=1;strokeColor=none;fillColor=none;align=center;verticalAlign=middle;whiteSpace=wrap;rounded=0;fillStyle=auto;fontSize=13;" vertex="1" parent="1">
          <mxGeometry x="445" y="985" width="150" height="30" as="geometry" />
        </mxCell>
        <mxCell id="LkTbfZvUrr51lgm0EBLz-35" value="" style="endArrow=classic;html=1;rounded=0;fontSize=13;exitX=0;exitY=0.5;exitDx=0;exitDy=0;entryX=1;entryY=0.5;entryDx=0;entryDy=0;startArrow=none;" edge="1" parent="1" source="LkTbfZvUrr51lgm0EBLz-36" target="LkTbfZvUrr51lgm0EBLz-21">
          <mxGeometry width="50" height="50" relative="1" as="geometry">
            <mxPoint x="630" y="1080" as="sourcePoint" />
            <mxPoint x="680" y="1030" as="targetPoint" />
          </mxGeometry>
        </mxCell>
        <mxCell id="LkTbfZvUrr51lgm0EBLz-36" value="Token de paiement" style="text;html=1;strokeColor=none;fillColor=none;align=center;verticalAlign=middle;whiteSpace=wrap;rounded=0;fillStyle=auto;fontSize=13;" vertex="1" parent="1">
          <mxGeometry x="490" y="1030" width="150" height="30" as="geometry" />
        </mxCell>
        <mxCell id="LkTbfZvUrr51lgm0EBLz-37" value="" style="endArrow=none;html=1;rounded=0;fontSize=13;exitX=0;exitY=0.5;exitDx=0;exitDy=0;entryX=1;entryY=0.5;entryDx=0;entryDy=0;" edge="1" parent="1" source="LkTbfZvUrr51lgm0EBLz-25" target="LkTbfZvUrr51lgm0EBLz-36">
          <mxGeometry width="50" height="50" relative="1" as="geometry">
            <mxPoint x="765" y="1045" as="sourcePoint" />
            <mxPoint x="420" y="1045" as="targetPoint" />
          </mxGeometry>
        </mxCell>
        <mxCell id="LkTbfZvUrr51lgm0EBLz-39" value="" style="endArrow=classic;html=1;rounded=0;fontSize=13;exitX=0;exitY=0.75;exitDx=0;exitDy=0;entryX=1.005;entryY=0.917;entryDx=0;entryDy=0;entryPerimeter=0;" edge="1" parent="1" source="LkTbfZvUrr51lgm0EBLz-25" target="LkTbfZvUrr51lgm0EBLz-21">
          <mxGeometry width="50" height="50" relative="1" as="geometry">
            <mxPoint x="480" y="1130" as="sourcePoint" />
            <mxPoint x="530" y="1080" as="targetPoint" />
          </mxGeometry>
        </mxCell>
        <mxCell id="LkTbfZvUrr51lgm0EBLz-40" value="Paiement result" style="text;html=1;strokeColor=none;fillColor=none;align=center;verticalAlign=middle;whiteSpace=wrap;rounded=0;fillStyle=auto;fontSize=13;" vertex="1" parent="1">
          <mxGeometry x="510" y="1090" width="100" height="30" as="geometry" />
        </mxCell>
        <mxCell id="LkTbfZvUrr51lgm0EBLz-42" value="" style="endArrow=classic;html=1;rounded=0;fontSize=15;exitX=0.842;exitY=0;exitDx=0;exitDy=0;exitPerimeter=0;" edge="1" parent="1" source="LkTbfZvUrr51lgm0EBLz-21" target="LkTbfZvUrr51lgm0EBLz-14">
          <mxGeometry width="50" height="50" relative="1" as="geometry">
            <mxPoint x="370" y="910" as="sourcePoint" />
            <mxPoint x="715" y="932.5" as="targetPoint" />
          </mxGeometry>
        </mxCell>
        <mxCell id="LkTbfZvUrr51lgm0EBLz-43" value="&lt;font style=&quot;font-size: 12px;&quot;&gt;Exposer le token de paiement&lt;/font&gt;" style="text;html=1;strokeColor=none;fillColor=none;align=center;verticalAlign=middle;whiteSpace=wrap;rounded=0;fillStyle=auto;fontSize=17;" vertex="1" parent="1">
          <mxGeometry x="344" y="840" width="126" height="30" as="geometry" />
        </mxCell>
        <mxCell id="LkTbfZvUrr51lgm0EBLz-45" value="" style="endArrow=classic;html=1;rounded=0;fontSize=15;" edge="1" parent="1" source="LkTbfZvUrr51lgm0EBLz-14" target="LkTbfZvUrr51lgm0EBLz-15">
          <mxGeometry width="50" height="50" relative="1" as="geometry">
            <mxPoint x="630" y="840" as="sourcePoint" />
            <mxPoint x="779.0946137787057" y="595.2" as="targetPoint" />
          </mxGeometry>
        </mxCell>
        <mxCell id="LkTbfZvUrr51lgm0EBLz-46" value="Redirection page&amp;nbsp;&lt;br&gt;resultat" style="text;html=1;strokeColor=none;fillColor=none;align=center;verticalAlign=middle;whiteSpace=wrap;rounded=0;fillStyle=auto;" vertex="1" parent="1">
          <mxGeometry x="610" y="650" width="130" height="30" as="geometry" />
        </mxCell>
        <mxCell id="LkTbfZvUrr51lgm0EBLz-47" value="" style="endArrow=classic;html=1;rounded=0;fontSize=15;entryX=0.9;entryY=-0.008;entryDx=0;entryDy=0;entryPerimeter=0;" edge="1" parent="1" source="LkTbfZvUrr51lgm0EBLz-14" target="LkTbfZvUrr51lgm0EBLz-25">
          <mxGeometry width="50" height="50" relative="1" as="geometry">
            <mxPoint x="590" y="839.9999999999999" as="sourcePoint" />
            <mxPoint x="785" y="839.9999999999999" as="targetPoint" />
          </mxGeometry>
        </mxCell>
        <mxCell id="LkTbfZvUrr51lgm0EBLz-48" value="Commencer le paiement" style="text;html=1;strokeColor=none;fillColor=none;align=center;verticalAlign=middle;whiteSpace=wrap;rounded=0;fillStyle=auto;fontSize=13;rotation=45;" vertex="1" parent="1">
          <mxGeometry x="670" y="850" width="150" height="30" as="geometry" />
        </mxCell>
        <mxCell id="LkTbfZvUrr51lgm0EBLz-49" value="" style="endArrow=classic;html=1;rounded=0;fontSize=15;exitX=0.075;exitY=0.008;exitDx=0;exitDy=0;exitPerimeter=0;" edge="1" parent="1" source="LkTbfZvUrr51lgm0EBLz-25" target="LkTbfZvUrr51lgm0EBLz-14">
          <mxGeometry width="50" height="50" relative="1" as="geometry">
            <mxPoint x="770" y="1010" as="sourcePoint" />
            <mxPoint x="570" y="800" as="targetPoint" />
          </mxGeometry>
        </mxCell>
        <mxCell id="LkTbfZvUrr51lgm0EBLz-50" value="Resultat du paiement" style="text;html=1;strokeColor=none;fillColor=none;align=center;verticalAlign=middle;whiteSpace=wrap;rounded=0;fillStyle=auto;fontSize=13;rotation=60;" vertex="1" parent="1">
          <mxGeometry x="580" y="860" width="150" height="30" as="geometry" />
        </mxCell>
        <mxCell id="LkTbfZvUrr51lgm0EBLz-56" value="" style="sketch=0;outlineConnect=0;fontColor=#232F3E;gradientColor=none;fillColor=#3F8624;strokeColor=none;dashed=0;verticalLabelPosition=bottom;verticalAlign=top;align=center;html=1;fontSize=12;fontStyle=0;aspect=fixed;pointerEvents=1;shape=mxgraph.aws4.iot_analytics_data_store;fillStyle=auto;" vertex="1" parent="1">
          <mxGeometry x="60" y="1003.78" width="64" height="92.44" as="geometry" />
        </mxCell>
        <mxCell id="LkTbfZvUrr51lgm0EBLz-57" value="MINIMUN PAIEMENT SERVICE" style="rounded=1;whiteSpace=wrap;html=1;fillStyle=auto;fontSize=30;" vertex="1" parent="1">
          <mxGeometry x="220" y="310" width="496" height="60" as="geometry" />
        </mxCell>
      </root>
    </mxGraphModel>
  </diagram>
</mxfile>
